<?xml version="1.0" encoding="UTF-8"?><svg id="a" xmlns="http://www.w3.org/2000/svg" viewBox="0 0 300 316"><path d="M216.26,78.28c0,1.66-.08,3.31-.2,4.97-2.8-1.96-5.68-3.79-8.63-5.48-2.98-1.73-6.04-3.29-9.12-4.71-29.95-13.73-64.69-13.7-94.62.03-3.11,1.4-6.16,2.98-9.14,4.69-2.93,1.68-5.81,3.51-8.61,5.48-.13-1.66-.2-3.31-.2-4.97,0-18.29,7.92-35.68,21.5-47.88l-4.1-8.74c-1.68-3.59-1.86-7.64-.51-11.38,1.35-3.72,4.08-6.72,7.67-8.41,3.62-1.68,7.64-1.86,11.38-.51,3.74,1.35,6.72,4.08,8.41,7.67l3.31,7.03c11.41-3.18,23.81-3.18,35.22,0l3.29-7.03c1.71-3.59,4.69-6.32,8.43-7.67,3.72-1.35,7.77-1.17,11.38.51,3.59,1.68,6.32,4.69,7.67,8.41,1.35,3.74,1.17,7.79-.51,11.38l-4.1,8.74c13.58,12.2,21.5,29.6,21.5,47.88Z" fill="#fff"/><path d="M90.22,214.16v-.02l-62.77,25.61c-4.25,1.68-7.04,5.77-7.04,10.34v54.33c0,6.14,4.97,11.12,11.13,11.12s11.12-4.97,11.12-11.12v-46.76l53.27-21.85-5.71-21.65Z" fill="#fff"/><path d="M42.66,114.87v-46.86c-.18-14.57-22.04-14.66-22.25,0v54.43c0,4.56,2.79,8.68,7.04,10.35l49.23,19.37,10.75-19.7-44.77-17.59Z" fill="#fff"/><path d="M10.95,175.07c-14.53.19-14.68,22.02,0,22.25h66.99v-22.25H10.95Z" fill="#fff"/><path d="M209.78,214.16v-.02l62.77,25.61c4.25,1.68,7.04,5.77,7.04,10.34v54.33c0,6.14-4.97,11.12-11.13,11.12-6.14,0-11.12-4.97-11.12-11.12v-46.76s-53.27-21.85-53.27-21.85l5.71-21.65Z" fill="#fff"/><path d="M257.34,114.87v-46.86c.18-14.57,22.04-14.66,22.25,0v54.43c0,4.56-2.79,8.68-7.04,10.35l-49.23,19.37-10.75-19.7,44.77-17.59Z" fill="#fff"/><path d="M289.05,175.07c14.53.19,14.68,22.02,0,22.25h-66.99v-22.25h66.99Z" fill="#fff"/><path d="M215.47,113.17c-17.81-17.8-41.13-26.68-64.5-26.68s-46.65,8.88-64.45,26.68c-35.63,35.65-35.63,93.37,0,128.99l40.52,40.52,23.93,23.96,23.98-23.96,12.95-12.97,27.57-27.55c17.83-17.8,26.71-41.13,26.71-64.49s-8.88-46.67-26.71-64.5ZM150.97,219.53c-23.12,0-41.86-18.74-41.86-41.86s18.74-41.88,41.86-41.88,41.87,18.74,41.87,41.88-18.74,41.86-41.87,41.86Z" fill="#04668d"/></svg>