<?xml version="1.0" encoding="UTF-8"?><svg id="a" xmlns="http://www.w3.org/2000/svg" viewBox="0 0 1191.96 324.31"><path d="M220.41,81.83c0,1.74-.08,3.48-.21,5.22-2.95-2.06-5.97-3.99-9.08-5.76-3.13-1.82-6.35-3.46-9.59-4.95-31.5-14.44-68.03-14.41-99.5.03-3.27,1.47-6.48,3.13-9.62,4.93-3.08,1.77-6.11,3.7-9.05,5.76-.13-1.74-.21-3.48-.21-5.22,0-19.23,8.33-37.52,22.61-50.35l-4.31-9.19c-1.77-3.78-1.96-8.03-.54-11.97,1.42-3.91,4.29-7.07,8.06-8.84,3.8-1.77,8.03-1.96,11.97-.54,3.94,1.42,7.07,4.29,8.84,8.06l3.48,7.39c12-3.35,25.04-3.35,37.04,0l3.46-7.39c1.79-3.78,4.93-6.64,8.87-8.06,3.91-1.42,8.17-1.23,11.97.54,3.78,1.77,6.64,4.93,8.06,8.84,1.42,3.94,1.23,8.2-.54,11.97l-4.31,9.19c14.28,12.83,22.61,31.12,22.61,50.35Z" fill="#fff"/><path d="M94.87,217.71v-.02l-66,26.93c-4.47,1.76-7.4,6.07-7.4,10.87v57.13c0,6.46,5.23,11.69,11.71,11.69s11.69-5.23,11.69-11.69v-49.17l56.02-22.98-6.01-22.76Z" fill="#fff"/><path d="M44.86,113.3v-49.28c-.18-15.32-23.17-15.42-23.4,0v57.23c0,4.8,2.93,9.13,7.4,10.89l51.77,20.37,11.31-20.72-47.08-18.49Z" fill="#fff"/><path d="M11.52,176.6c-15.28.21-15.44,23.15,0,23.4h70.44v-23.4H11.52Z" fill="#fff"/><path d="M206.6,217.71v-.02l66,26.93c4.47,1.76,7.4,6.07,7.4,10.87v57.13c0,6.46-5.23,11.69-11.71,11.69-6.46,0-11.69-5.23-11.69-11.69v-49.17s-56.02-22.98-56.02-22.98l6.01-22.76Z" fill="#fff"/><path d="M256.61,113.3v-49.28c.18-15.32,23.17-15.42,23.4,0v57.23c0,4.8-2.93,9.13-7.4,10.89l-51.77,20.37-11.31-20.72,47.08-18.49Z" fill="#fff"/><path d="M289.95,176.6c15.28.21,15.44,23.15,0,23.4h-70.44v-23.4h70.44Z" fill="#fff"/><path d="M219.58,111.51c-18.73-18.72-43.25-28.06-67.83-28.06s-49.06,9.34-67.78,28.06c-37.47,37.48-37.47,98.19,0,135.64l42.61,42.61,25.16,25.2,25.21-25.2,13.62-13.64,28.99-28.98c18.75-18.72,28.09-43.25,28.09-67.81s-9.34-49.08-28.09-67.83ZM151.76,223.36c-24.31,0-44.02-19.7-44.02-44.02s19.7-44.03,44.02-44.03,44.03,19.7,44.03,44.03-19.7,44.02-44.03,44.02Z" fill="#04668d"/><path d="M357.42,70.35h69.77c42.49,0,67.15,17.83,67.15,48.52,0,23.08-13.64,36.19-34.62,40.65,24.39,3.15,41.18,16,41.18,42.23,0,32-25.18,52.19-70.29,52.19h-73.18V70.35ZM396.76,101.3v44.59h31.47c16.79,0,26.75-8.66,26.75-22.3s-9.7-22.29-26.75-22.29h-31.47ZM396.76,176.32v46.42h34.1c18.88,0,29.64-8.66,29.64-22.82,0-14.95-11.02-23.61-29.64-23.61h-34.1Z" fill="#fff"/><path d="M611.56,119.14h36.98v134.81h-32.79l-3.41-16.26c-8.66,10.49-20.46,17.84-39.61,17.84-27.8,0-53.51-13.9-53.51-61.64v-74.75h36.98v69.77c0,24.13,7.87,35.93,26.23,35.93s29.11-13.38,29.11-38.29v-67.41Z" fill="#fff"/><path d="M776.52,119.14h32.52v130.88c0,33.31-20.46,57.96-72.13,57.96-37.51,0-63.21-17.05-65.05-48.26h37.24c3.41,12.85,13.64,20.2,30.69,20.2,20.72,0,33.05-10.23,33.05-31.21v-14.16c-8.92,11.28-22.29,18.62-41.18,18.62-36.2.26-62.69-26.23-62.69-67.93s26.49-67.93,62.42-67.93c19.41,0,33.05,8.66,41.97,20.46l3.15-18.62ZM772.59,185.76c0-22.56-12.59-38.56-32.79-38.56s-33.05,15.74-33.05,38.29,12.85,38.03,33.05,38.03,32.79-15.47,32.79-37.77Z" fill="#fff"/><path d="M837.62,70.35h74.75c39.87,0,66.36,23.87,66.36,61.11s-26.49,60.85-66.36,60.85h-35.41v61.64h-39.34V70.35ZM876.97,103.14v56.39h31.74c18.36,0,30.16-10.75,30.16-28.06s-11.8-28.33-30.16-28.33h-31.74Z" fill="#04668d"/><path d="M994.98,83.99c0-12.06,9.44-20.98,21.51-20.98s21.51,8.92,21.51,20.98-9.44,20.72-21.51,20.72-21.51-8.92-21.51-20.72ZM997.87,119.14h37.24v134.81h-37.24V119.14Z" fill="#04668d"/><path d="M1191.96,179.2v74.75h-36.98v-71.08c0-22.82-8.66-34.88-27.28-34.88s-30.16,13.64-30.16,36.98v68.98h-36.98V119.14h32.26l3.41,16.79c8.66-10.49,20.98-18.36,41.7-18.36,29.11,0,54.03,15.47,54.03,61.64Z" fill="#04668d"/></svg>