<?xml version="1.0" encoding="UTF-8"?><svg id="b" xmlns="http://www.w3.org/2000/svg" viewBox="0 0 300 322.73"><path d="M219.34,81.43c0,1.73-.08,3.46-.21,5.2-2.93-2.05-5.94-3.97-9.04-5.73-3.12-1.81-6.32-3.44-9.54-4.93-31.34-14.37-67.7-14.34-99.01.03-3.25,1.47-6.45,3.12-9.57,4.9-3.07,1.76-6.08,3.68-9.01,5.73-.13-1.73-.21-3.46-.21-5.2,0-19.14,8.29-37.34,22.49-50.11l-4.29-9.14c-1.76-3.76-1.95-8-.53-11.91,1.41-3.89,4.26-7.04,8.02-8.8,3.78-1.76,8-1.95,11.91-.53,3.92,1.41,7.04,4.26,8.8,8.02l3.46,7.36c11.94-3.33,24.92-3.33,36.86,0l3.44-7.36c1.79-3.76,4.9-6.61,8.82-8.02,3.89-1.41,8.13-1.23,11.91.53,3.76,1.76,6.61,4.9,8.02,8.8,1.41,3.92,1.23,8.16-.53,11.91l-4.29,9.14c14.21,12.77,22.49,30.97,22.49,50.11Z" fill="#414142"/><path d="M94.41,216.65v-.02l-65.68,26.8c-4.45,1.76-7.37,6.04-7.37,10.82v56.85c0,6.43,5.2,11.63,11.65,11.63s11.63-5.2,11.63-11.63v-48.93l55.74-22.86-5.98-22.65Z" fill="#414142"/><path d="M44.64,112.75v-49.04c-.18-15.24-23.06-15.35-23.28,0v56.95c0,4.78,2.92,9.08,7.37,10.84l51.51,20.27,11.25-20.62-46.85-18.4Z" fill="#414142"/><path d="M11.46,175.74c-15.2.2-15.37,23.04,0,23.28h70.1v-23.28H11.46Z" fill="#414142"/><path d="M205.59,216.65v-.02l65.68,26.8c4.45,1.76,7.37,6.04,7.37,10.82v56.85c0,6.43-5.2,11.63-11.65,11.63-6.43,0-11.63-5.2-11.63-11.63v-48.93s-55.74-22.86-55.74-22.86l5.98-22.65Z" fill="#414142"/><path d="M255.36,112.75v-49.04c.18-15.24,23.06-15.35,23.28,0v56.95c0,4.78-2.92,9.08-7.37,10.84l-51.51,20.27-11.25-20.62,46.85-18.4Z" fill="#414142"/><path d="M288.54,175.74c15.2.2,15.37,23.04,0,23.28h-70.1v-23.28h70.1Z" fill="#414142"/><path d="M218.51,110.97c-18.64-18.62-43.04-27.92-67.5-27.92s-48.82,9.3-67.45,27.92c-37.28,37.3-37.28,97.71,0,134.98l42.41,42.41,25.04,25.07,25.09-25.07,13.55-13.57,28.85-28.83c18.66-18.62,27.95-43.04,27.95-67.48s-9.3-48.84-27.95-67.5ZM151.02,222.27c-24.19,0-43.8-19.61-43.8-43.8s19.61-43.82,43.8-43.82,43.82,19.61,43.82,43.82-19.61,43.8-43.82,43.8Z" fill="#04668d"/></svg>